<svg xmlns="http://www.w3.org/2000/svg" width="20" height="20" fill="#96d9a1" viewBox="0 0 16 16">
  <path d="M4.243 4.243a2.5 2.5 0 0 0 0 3.535l1.414 1.414a.5.5 0 1 1-.707.707L3.536 8.485a3.5 3.5 0 1 1 4.95-4.95l1.414 1.414a.5.5 0 1 1-.707.707L7.778 4.243a2.5 2.5 0 0 0-3.535 0z" fill="#96d9a1"/>
  <path d="M11.757 11.757a2.5 2.5 0 0 0 0-3.535L10.343 6.81a.5.5 0 1 1 .707-.707l1.414 1.414a3.5 3.5 0 1 1-4.95 4.95l-1.414-1.414a.5.5 0 1 1 .707-.707l1.414 1.414a2.5 2.5 0 0 0 3.535 0z" fill="#96d9a1"/>
</svg>